<svg width="60" height="38" viewBox="0 0 60 38" fill="none" xmlns="http://www.w3.org/2000/svg">
<g clip-path="url(#clip0_48_39)">
<path d="M26.3238 27.3349L29.1832 2.99939L55.6608 7.56688L47.9815 31.067L36.5526 31.8571L26.3238 27.3349Z" fill="#1572B6"/>
<path d="M37.0165 29.8267L46.2522 29.1884L52.8147 9.10648L41.9912 7.23938L37.0165 29.8267Z" fill="#33A9DC"/>
<path d="M40.0826 15.9053L44.4691 16.662L45.4331 13.71L40.7442 12.9012L41.3904 9.96729L49.7022 11.4011L49.4495 12.1743L46.8548 20.1189L39.4364 18.8392L40.0826 15.9053Z" fill="white"/>
<path d="M38.4249 23.5277L38.4091 23.5289L34.912 22.0094L35.1913 19.629L31.8634 19.0549L31.3133 23.7414L37.7357 26.5813L37.7526 26.5803L38.4249 23.5277Z" fill="#EBEBEB"/>
<path d="M43.5682 19.4229L42.304 23.2826L38.4127 23.5276L37.7404 26.5802L44.9028 26.0856L45.0623 25.5989L46.894 19.9966L43.5682 19.4229Z" fill="white"/>
<path d="M41.4022 9.96938L40.756 12.9033L32.7488 11.522L32.8276 10.8509L33.0039 9.33742L33.0979 8.53687L41.4022 9.96938ZM40.0826 15.9054L39.4364 18.8392L35.791 18.2104L35.8698 17.5392L36.0472 16.026L36.1412 15.2254L40.0826 15.9054Z" fill="#EBEBEB"/>
</g>
<g clip-path="url(#clip1_48_39)">
<path d="M13.0051 31.3313L4.38455 8.08435L30.6633 2.68343L34.4965 26.9103L24.4288 31.7622L13.0051 31.3313Z" fill="#E44F26"/>
<path d="M23.9153 29.7413L32.0512 25.8205L28.7748 5.1177L18.0334 7.32532L23.9153 29.7413Z" fill="#F1662A"/>
<path d="M20.3434 16.1289L15.9902 17.0236L14.9078 14.104L19.5611 13.1476L18.7971 10.236L10.5484 11.9313L10.8323 12.6969L13.7453 20.5536L21.1074 19.0405L20.3434 16.1289ZM22.3274 23.6901L22.3135 23.6969L18.4204 23.5747L17.577 21.3009L14.2743 21.9797L15.9344 26.4554L23.1084 26.7262L23.1223 26.7194L22.3274 23.6901Z" fill="#EBEBEB"/>
<path d="M20.3317 16.1313L21.0957 19.0429L25.1466 18.2104L25.7565 22.065L22.3165 23.6953L23.1114 26.7247L29.4219 23.6834L29.3418 23.1817L28.1033 15.3581L27.9791 14.5596L20.3317 16.1313ZM18.7854 10.2384L19.5494 13.15L27.4958 11.5168L27.3903 10.8495L27.1531 9.34265L27.0267 8.54463L18.7854 10.2384Z" fill="white"/>
</g>
<defs>
<clipPath id="clip0_48_39">
<rect width="34.8266" height="31.1013" fill="white" transform="matrix(0.985445 0.169993 -0.215086 0.976595 25.6803 0.424683)"/>
</clipPath>
<clipPath id="clip1_48_39">
<rect width="34.7711" height="31.1633" fill="white" transform="matrix(0.979526 -0.201316 0.253806 0.967255 0 7)"/>
</clipPath>
</defs>
</svg>
