<?xml version="1.0" encoding="iso-8859-1"?>
<!-- Generator: Adobe Illustrator 19.0.0, SVG Export Plug-In . SVG Version: 6.00 Build 0)  -->
<svg version="1.1" id="Layer_1" xmlns="http://www.w3.org/2000/svg" xmlns:xlink="http://www.w3.org/1999/xlink" x="0px" y="0px"
	 viewBox="0 0 512.001 512.001" style="enable-background:new 0 0 512.001 512.001;" xml:space="preserve">
<polygon style="fill:#298983;" points="288.814,256.002 229.809,196.997 21.553,196.997 21.553,315.005 229.809,315.005 "/>
<rect x="210.055" y="83.824" transform="matrix(-0.7071 -0.7071 0.7071 -0.7071 393.2986 448.5674)" style="fill:#A5F2E5;" width="158.99" height="118.011"/>
<path d="M512,255.804c0-2.858-1.135-5.6-3.157-7.62L282.692,22.032c-4.209-4.209-11.032-4.209-15.24,0l-98.684,98.684
	c-2.022,2.02-3.157,4.762-3.157,7.62s1.135,5.6,3.157,7.62l39.489,39.489H10.777C4.825,175.444,0,180.269,0,186.221v139.561
	c0,5.952,4.825,10.777,10.777,10.777h197.479l-39.487,39.487c-2.022,2.02-3.157,4.762-3.157,7.62c0,2.858,1.135,5.6,3.157,7.62
	l98.684,98.684c2.104,2.105,4.862,3.157,7.62,3.157c2.757,0,5.516-1.052,7.62-3.157l55.188-55.188c4.209-4.209,4.209-11.031,0-15.24
	l0,0c-4.209-4.209-11.032-4.209-15.24,0l-47.568,47.568l-83.445-83.443l210.911-210.91l83.445,83.443L377.247,364.937
	c-4.209,4.209-4.209,11.031,0,15.24l0,0c4.209,4.209,11.032,4.209,15.24,0L508.845,263.82c2.022-2.02,3.157-4.762,3.157-7.62
	c0-0.066-0.009-0.132-0.01-0.198C511.991,255.934,512,255.87,512,255.804z M21.553,196.997h208.256l59.003,59.003l-59.003,59.003
	H21.553V196.997z M191.628,128.337l83.445-83.443l112.425,112.424l-83.445,83.445L191.628,128.337z"/>
<path style="fill:#62D9C7;" d="M377.246,364.937L485.982,256.2l-83.445-83.443l-210.91,210.91l83.445,83.443l47.568-47.568
	c4.209-4.209,11.032-4.209,15.24,0l39.365-39.365l0,0C373.037,375.968,373.037,369.146,377.246,364.937z"/>
<g>
</g>
<g>
</g>
<g>
</g>
<g>
</g>
<g>
</g>
<g>
</g>
<g>
</g>
<g>
</g>
<g>
</g>
<g>
</g>
<g>
</g>
<g>
</g>
<g>
</g>
<g>
</g>
<g>
</g>
</svg>
