<svg width="32" height="37" viewBox="0 0 32 37" fill="none" xmlns="http://www.w3.org/2000/svg">
<g clip-path="url(#clip0_48_42)">
<path d="M31.0144 8.93678L17.7861 1.08931C17.0241 0.637218 15.777 0.637218 15.015 1.08931L1.7869 8.93678C1.02481 9.38887 0.401337 10.4986 0.401337 11.4028V27.0977C0.460625 28.1508 0.984088 29.0229 1.78683 29.5637L15.0151 37.4111C15.7771 37.8633 17.0242 37.8633 17.7862 37.4111L31.0144 29.5637C31.8758 28.975 32.3662 28.0889 32.4 27.0977V11.4028C32.3691 10.4514 31.8146 9.49185 31.0144 8.93678ZM5.73444 19.2503C5.67177 8.5485 19.6217 3.82305 25.6375 13.7669L21.0214 16.5116C18.2348 11.7758 11.3159 13.4692 11.0675 19.2503C11.1421 24.5784 17.9425 27.0534 21.0217 21.9886L25.6378 24.7333C20.3361 34.1901 6.00169 30.7877 5.73444 19.2503Z" fill="#72B5CA"/>
</g>
<defs>
<clipPath id="clip0_48_42">
<rect width="32" height="37" fill="white"/>
</clipPath>
</defs>
</svg>
