<svg
  width="47"
  height="44"
  viewBox="0 0 47 44"
  fill="none"
  xmlns="http://www.w3.org/2000/svg"
>
  <ellipse cx="23.1282" cy="22" rx="23.1282" ry="22" fill="#EDEDED" />
  <g clip-path="url(#clip0_137_99)">
    <path
      d="M19.0224 27.7952C19.0224 27.7952 17.83 28.4574 19.871 28.6815C22.3436 28.951 23.6073 28.9124 26.3322 28.4197C26.3322 28.4197 27.0486 28.8488 28.049 29.2204C21.9407 31.7209 14.2246 29.0756 19.0224 27.7952ZM18.276 24.5321C18.276 24.5321 16.9386 25.4777 18.9811 25.6794C21.6224 25.9397 23.7083 25.961 27.3177 25.2972C27.3177 25.2972 27.817 25.7806 28.602 26.045C21.2166 28.1077 12.9906 26.2076 18.276 24.5321Z"
      fill="#5382A1"
    />
    <path
      d="M24.5685 18.9971C26.0736 20.6522 24.173 22.1416 24.173 22.1416C24.173 22.1416 27.9947 20.2572 26.2396 17.8975C24.6004 15.697 23.3432 14.6035 30.1486 10.8337C30.1486 10.8337 19.4664 13.382 24.5685 18.997"
      fill="#E76F00"
    />
    <path
      d="M32.6473 30.2087C32.6473 30.2087 33.5296 30.9031 31.6754 31.4404C28.1496 32.4606 17.0006 32.7687 13.9034 31.481C12.7901 31.0185 14.8779 30.3765 15.5346 30.2417C16.2195 30.0998 16.611 30.1263 16.611 30.1263C15.3728 29.2932 8.60802 31.7622 13.1748 32.4692C25.6291 34.3983 35.8777 31.6006 32.6473 30.2087ZM19.5957 21.1513C19.5957 21.1513 13.9247 22.438 17.5875 22.9051C19.1341 23.1028 22.2171 23.0581 25.0888 22.8283C27.4358 22.6393 29.7925 22.2372 29.7925 22.2372C29.7925 22.2372 28.9649 22.5757 28.3662 22.9661C22.6073 24.4128 11.4821 23.7398 14.6849 22.26C17.3935 21.0095 19.5958 21.1513 19.5958 21.1513H19.5957ZM29.7691 26.5827C35.6234 23.6771 32.9166 20.8849 31.0273 21.2611C30.5642 21.3531 30.3577 21.4328 30.3577 21.4328C30.3577 21.4328 30.5297 21.1757 30.858 21.0644C34.5955 19.8092 37.47 24.766 29.6514 26.7292C29.6514 26.7293 29.742 26.6519 29.7691 26.5827Z"
      fill="#5382A1"
    />
    <path
      d="M26.2396 4.74642C26.2396 4.74642 29.4818 7.84432 23.1645 12.6077C18.0988 16.4289 22.0094 18.6076 23.1624 21.0969C20.2055 18.5487 18.0354 16.3055 19.4913 14.2177C21.628 11.1529 27.5477 9.66698 26.2396 4.74634"
      fill="#E76F00"
    />
    <path
      d="M20.171 34.4562C25.7904 34.7999 34.4194 34.2656 34.6238 31.726C34.6238 31.726 34.231 32.6888 29.9797 33.4533C25.1835 34.3154 19.2681 34.2148 15.7596 33.6623C15.7597 33.6623 16.4778 34.2301 20.1711 34.4562"
      fill="#5382A1"
    />
  </g>
  <defs>
    <clipPath id="clip0_137_99">
      <rect
        width="23.1282"
        height="29.8571"
        fill="white"
        transform="translate(11.5641 4.71436)"
      />
    </clipPath>
  </defs>
</svg>
