<svg xmlns="http://www.w3.org/2000/svg" viewBox="0 0 210 210">
  <g>
    <path fill="#8b8b8b" d="M205,170.7l-52.3-31.6c-2.7-1.7-5-0.4-5,2.8v16l-91.9,0V59.4h11.4c3.2,0,4.5-2.2,2.8-5L38.4,2.1
  c-1.7-2.7-4.3-2.7-6,0L0.7,54.4c-1.7,2.7-0.4,5,2.8,5h12.1v126.1c0,3,2.4,5.4,5.4,5.4h126.7v14.8c0,3.2,2.2,4.4,5,2.8l52.3-31.7
  C207.7,175.1,207.7,172.4,205,170.7L205,170.7z"></path>
    <path fill="#dadada" d="M141.9,86.5V68.1c0-1.6-1.2-2.9-2.8-2.9H66.5c-1.6,0-2.8,1.3-2.8,2.9v18.4c0,1.6,1.2,2.9,2.8,2.9h72.6
  C140.7,89.4,141.9,88.1,141.9,86.5L141.9,86.5z"></path>
    <path fill="#dadada" d="M118.4,116.9V98.5c0-1.6-0.9-2.9-2-2.9H65.7c-1.1,0-2,1.3-2,2.9v18.4c0,1.6,0.9,2.9,2,2.9h50.8
  C117.6,119.8,118.4,118.6,118.4,116.9L118.4,116.9z"></path>
    <path fill="#dadada" d="M141.9,147.3V129c0-1.7-1.2-2.9-2.8-2.9H66.5c-1.6,0-2.8,1.3-2.8,2.9v18.4c0,1.6,1.2,2.9,2.8,2.9h72.6
  C140.7,150.3,141.9,149,141.9,147.3L141.9,147.3z"></path>
  </g>
</svg>