<svg width="800px" height="800px" viewBox="0 0 32 32" id="Camada_1" version="1.1" xml:space="preserve"
    xmlns="http://www.w3.org/2000/svg" xmlns:xlink="http://www.w3.org/1999/xlink" fill="#ffffff" stroke="#ffffff">

    <g id="SVGRepo_bgCarrier" stroke-width="0" />

    <g id="SVGRepo_tracerCarrier" stroke-linecap="round" stroke-linejoin="round" />

    <g id="SVGRepo_iconCarrier">
        <style type="text/css">
            .st0 {
                fill: #ff4655;
            }
        </style>
        <path d="M6,2h20c2.2,0,4,1.8,4,4v20c0,2.2-1.8,4-4,4H6c-2.2,0-4-1.8-4-4V6C2,3.8,3.8,2,6,2z" />
        <g>
            <path class="st0"
                d="M19.1,24.4H19c-2,0-4,0-6,0c-0.2,0-0.4-0.1-0.5-0.3c-2.1-2.6-4.2-5.3-6.3-7.9C6.1,16.1,6,16,6,15.8 c0-2.6,0-5.1,0-7.7C6,8.1,6,8.1,6.1,8h0.1c4.3,5.4,8.6,10.8,13,16.2c0,0,0,0.1,0,0.1L19.1,24.4L19.1,24.4z" />
            <path class="st0"
                d="M25.8,16.3c-0.6,0.8-1.2,1.5-1.8,2.3c-0.1,0.2-0.3,0.3-0.5,0.3c-2,0-4,0-6,0c0,0-0.1,0-0.1,0 c-0.1,0-0.2-0.1-0.1-0.2c0,0,0-0.1,0.1-0.1c2-2.5,4-5,5.9-7.4c0.8-1,1.6-2,2.5-3.1c0,0,0.1-0.1,0.1-0.1c0,0,0.1,0,0.1,0 c0,0.1,0,0.1,0,0.2c0,2.5,0,5.1,0,7.6C26,16,25.9,16.2,25.8,16.3L25.8,16.3z" />
        </g>
    </g>

</svg>