<svg width="42" height="37" viewBox="0 0 42 37" fill="none" xmlns="http://www.w3.org/2000/svg">
<path d="M34.5324 11.9803C34.0854 11.8286 33.6346 11.6881 33.1805 11.5589C33.2568 11.2505 33.327 10.9459 33.3893 10.6467C34.4128 5.73266 33.7437 1.77382 31.4585 0.470383C29.2674 -0.779178 25.6841 0.523774 22.0653 3.63908C21.7086 3.94665 21.3599 4.26309 21.0194 4.58809C20.7914 4.37198 20.5594 4.16006 20.3236 3.95244C16.5308 0.621467 12.7291 -0.782424 10.4464 0.524747C8.25727 1.7782 7.60905 5.49979 8.53043 10.1569C8.6221 10.6182 8.7256 11.077 8.84084 11.5331C8.30271 11.6843 7.78345 11.8453 7.28651 12.0167C2.83976 13.5502 0 15.9534 0 18.4462C0 21.0208 3.04861 23.6032 7.68009 25.169C8.05558 25.2954 8.43419 25.4126 8.81557 25.5204C8.69171 26.0115 8.58174 26.506 8.4858 27.0033C7.60741 31.5796 8.29336 35.2132 10.4765 36.4587C12.7314 37.745 16.516 36.423 20.201 33.2366C20.4998 32.9776 20.7921 32.7112 21.0774 32.4377C21.4462 32.7896 21.8248 33.1313 22.2127 33.4624C25.7824 36.5006 29.3078 37.7274 31.4888 36.4785C33.7416 35.1886 34.4738 31.2851 33.5232 26.5359C33.4483 26.1639 33.3644 25.7936 33.2714 25.4256C33.5372 25.3477 33.798 25.2675 34.0523 25.1841C38.8672 23.6063 42 21.0552 42 18.4462C42 15.9443 39.0685 13.5249 34.5324 11.9803ZM33.4881 23.4996C33.2584 23.5748 33.0228 23.6473 32.7826 23.7179C32.2511 22.0534 31.5338 20.2836 30.6559 18.4548C31.4936 16.6697 32.1833 14.9225 32.7 13.2688C33.1296 13.3918 33.5465 13.5215 33.9485 13.6583C37.8351 14.9818 40.2058 16.9385 40.2058 18.4462C40.2058 20.0521 37.6455 22.137 33.4881 23.4996ZM31.7632 26.8806C32.1835 28.9805 32.2434 30.8792 31.965 32.3636C31.7149 33.6974 31.2119 34.5865 30.5898 34.9427C29.2663 35.7006 26.4357 34.7155 23.383 32.1171C23.0221 31.8093 22.67 31.4916 22.3269 31.1645C23.5105 29.8842 24.6932 28.396 25.8476 26.743C27.878 26.5648 29.7962 26.2733 31.5358 25.8756C31.6196 26.2088 31.6954 26.5439 31.7632 26.8806ZM14.3187 34.8117C13.0256 35.2634 11.9956 35.2764 11.373 34.9213C10.0482 34.1655 9.49741 31.2479 10.2487 27.3343C10.338 26.8719 10.4402 26.412 10.5553 25.9551C12.2756 26.3316 14.1799 26.6023 16.2151 26.7655C17.3773 28.383 18.5942 29.8696 19.8206 31.1715C19.5599 31.4209 19.2931 31.664 19.0204 31.9004C17.3908 33.3093 15.7579 34.309 14.3187 34.8117ZM8.26055 23.4897C6.21255 22.7973 4.52123 21.8974 3.36197 20.9155C2.32017 20.0332 1.79435 19.157 1.79435 18.4462C1.79435 16.9334 4.07433 15.0039 7.87713 13.6925C8.33864 13.5335 8.82164 13.3834 9.32285 13.2425C9.84851 14.9335 10.5379 16.7015 11.3699 18.4894C10.5271 20.3037 9.82784 22.1 9.29709 23.8109C8.94897 23.7123 8.60335 23.6052 8.26055 23.4897ZM10.2913 9.81597C9.50201 5.82597 10.0262 2.81615 11.3454 2.06073C12.7504 1.25615 15.8575 2.40331 19.1323 5.27957C19.3459 5.46756 19.556 5.65935 19.7625 5.85486C18.5422 7.15099 17.3365 8.62661 16.1846 10.2345C14.2093 10.4156 12.3185 10.7064 10.5801 11.096C10.473 10.6719 10.3767 10.2451 10.2913 9.81613V9.81597ZM28.4082 14.241C27.9976 13.5395 27.5718 12.8468 27.131 12.1634C28.4711 12.331 29.755 12.5535 30.9607 12.8255C30.5988 13.9731 30.1476 15.1729 29.6166 16.4029C29.2284 15.6744 28.8255 14.9536 28.4082 14.241ZM21.0202 7.12324C21.8477 8.01011 22.6766 9.00018 23.4918 10.0745C21.838 9.99723 20.1815 9.9969 18.5277 10.0735C19.3438 9.00911 20.1797 8.02033 21.0202 7.12324ZM13.5847 14.2532C13.1726 14.9601 12.7773 15.6764 12.399 16.4015C11.8766 15.1758 11.4296 13.9705 11.0645 12.8066C12.2629 12.5415 13.5407 12.3247 14.8723 12.1601C14.4266 12.8477 13.9973 13.5455 13.5847 14.253V14.2532ZM14.9105 24.8586C13.5348 24.7067 12.2378 24.5011 11.0398 24.243C11.4105 23.0584 11.8675 21.8275 12.4012 20.5755C12.7809 21.3012 13.1779 22.0179 13.5918 22.7251C14.0173 23.4521 14.458 24.1642 14.9105 24.8586ZM21.0697 29.8941C20.2192 28.9867 19.371 27.9826 18.5427 26.9028C19.3469 26.934 20.1667 26.9499 21 26.9499C21.8561 26.9499 22.7023 26.9309 23.5353 26.8942C22.7174 27.9935 21.8917 28.999 21.0697 29.8941ZM29.6335 20.5116C30.1949 21.7774 30.668 23.0018 31.0437 24.1661C29.8261 24.441 28.5113 24.6624 27.1259 24.8268C27.5698 24.1307 27.9997 23.4259 28.4153 22.7129C28.8378 21.9882 29.244 21.2542 29.6335 20.5116ZM26.8611 21.8262C26.2249 22.9194 25.553 23.9918 24.8463 25.0418C23.5662 25.1315 22.2833 25.176 21 25.1754C19.6929 25.1754 18.4216 25.1351 17.1974 25.0566C16.4722 24.009 15.7874 22.9347 15.1444 21.8359H15.1446C14.5046 20.743 13.9069 19.6264 13.3526 18.4886C13.9054 17.3505 14.5014 16.2334 15.1392 15.1396L15.139 15.1397C15.7766 14.0457 16.4559 12.976 17.1755 11.9329C18.4245 11.8394 19.7054 11.7908 20.9998 11.7908H21C22.3004 11.7908 23.5828 11.8399 24.8315 11.9341C25.5439 12.9755 26.2189 14.0416 26.8552 15.1302C27.4951 16.2215 28.099 17.3332 28.6658 18.4634C28.1048 19.6052 27.5029 20.7268 26.8611 21.8262ZM30.5624 2.00783C31.9687 2.81015 32.5157 6.04554 31.6321 10.2884C31.5756 10.559 31.5123 10.8348 31.4434 11.1144C29.7007 10.7165 27.8086 10.4206 25.8275 10.2368C24.6735 8.6112 23.4777 7.1333 22.2772 5.85388C22.5918 5.55391 22.9139 5.26171 23.2432 4.97757C26.344 2.30854 29.242 1.25469 30.5624 2.00783ZM21 14.7365C23.0713 14.7365 24.7505 16.3974 24.7505 18.4462C24.7505 20.495 23.0713 22.156 21 22.156C18.9287 22.156 17.2495 20.495 17.2495 18.4462C17.2495 16.3974 18.9287 14.7365 21 14.7365Z" fill="#009ED0"/>
</svg>
